# xmcd
# 
# Track frame offsets:
#     150
#     26657
#     46507
#     67240
#     93747
#     113597
# 
# Disc length: 1786
# 
# Revision: 0
# Processed by: cddbd v1.5.2PL0 Copyright (c) Steve Scherf et al.
# Submitted via: fre:ac v1.0.31
# 
DISCID=4906f806
DTITLE=鈴木みのり - リワインド
DYEAR=0
DGENRE=Anime
TTITLE0=Crosswalk
TTITLE1=リワインド
TTITLE2=ちいさなみのり
TTITLE3=Crosswalk off vocal
TTITLE4=リワインド　off vocal
TTITLE5=ちいさなみのり off vocal
EXTD=
EXTT0=
EXTT1=
EXTT2=
EXTT3=
EXTT4=
EXTT5=
PLAYORDER=
